<svg width="201" height="32" viewBox="0 0 201 32" fill="none" xmlns="http://www.w3.org/2000/svg">
<g clip-path="url(#clip0_72_23416)">
<path d="M39.1305 3.48105L38.6998 2.86482L30.6978 7.9173C29.8333 7.64508 28.0893 7.23226 26.3303 7.61217C24.7509 7.95319 23.5872 8.87155 22.7646 10.4241C22.3278 11.2527 22.0287 12.192 21.6847 13.2779C21.5261 13.7774 21.3616 14.295 21.1732 14.8364C21.0475 15.1924 20.9219 15.5364 20.7932 15.8744C14.2182 14.5851 10.7332 9.21855 11.4511 1.41998L11.5498 0.364014L10.5208 0.618282C10.44 0.639222 8.52552 1.12383 6.43453 2.73619C2.59058 5.70366 0.388916 10.1519 0.388916 14.9381C0.388916 18.4949 1.60941 21.7675 3.64954 24.373L3.6286 24.3879C3.76621 24.5644 3.91877 24.732 4.07133 24.8905C6.88623 28.178 11.0592 30.266 15.7139 30.266C19.6984 30.266 23.2971 28.872 25.8457 26.3383C27.9098 24.2892 29.4354 21.597 30.3807 18.3393C31.1375 15.7398 31.5413 12.7065 31.5892 9.32624L39.1305 3.48105ZM5.15122 23.8285C4.06235 22.5363 3.20382 21.0406 2.64443 19.4073C5.10635 21.2679 8.4986 22.3209 12.2259 22.3209C12.4143 22.3209 12.6028 22.3179 12.7913 22.3119C14.7536 22.2551 16.5604 21.914 18.0023 21.3636C16.369 23.664 14.4874 24.9922 12.2767 25.4379C8.21741 26.2606 6.03668 24.726 5.15122 23.8285ZM7.35588 3.93574C8.30117 3.20584 9.21055 2.73619 9.86866 2.455C9.69815 6.47843 10.6225 9.94845 12.5639 12.551C14.3109 14.8902 16.8267 16.4906 19.8779 17.2235C16.7997 17.9714 12.9468 17.2684 9.8178 15.336C6.73666 13.4334 4.74439 10.6215 4.16107 7.37884C5.00764 6.08357 6.08155 4.91992 7.35588 3.93574ZM3.09314 9.32624C4.05936 12.2788 6.10847 14.8185 9.02209 16.6193C11.5618 18.1898 14.5532 19.0214 17.3352 19.0214C18.0232 19.0214 18.6963 18.9705 19.3484 18.8658C18.2476 19.9397 15.6421 20.7205 12.7494 20.8013C8.25031 20.9329 4.25081 19.4162 2.02222 16.7509C1.94444 16.1556 1.89957 15.5513 1.89957 14.9351C1.89957 12.9698 2.31538 11.0702 3.09314 9.32624ZM24.7838 25.2674C22.5193 27.5169 19.3005 28.7554 15.7139 28.7554C13.3776 28.7554 11.1759 28.1691 9.24346 27.143C9.52166 27.164 9.80285 27.1789 10.09 27.1789C10.8887 27.1789 11.7203 27.0952 12.5729 26.9217C16.9553 26.0362 20.1381 22.3568 22.5941 15.339C22.7915 14.7766 22.959 14.2471 23.1206 13.7386C23.4436 12.7215 23.7248 11.842 24.0987 11.133C24.706 9.98435 25.5137 9.33522 26.6444 9.08992C27.9636 8.80574 29.3247 9.09291 30.0786 9.31129C30.0337 12.554 29.6478 15.4526 28.9299 17.9205C28.0594 20.9299 26.6654 23.4008 24.7838 25.2674Z" fill="black"/>
<path d="M58.7839 25.1801H55.6938V17.4533H47.632V25.1801H44.5658V7.14795H47.632V14.6175H55.6938V7.14795H58.7839V25.1801Z" fill="black"/>
<path d="M62.7744 24.226C61.8471 23.2986 61.4851 21.9345 61.4851 20.3102V12.042H64.5244V19.9243C64.5244 20.8247 64.7039 21.5457 65.1436 22.0632C65.5803 22.6046 66.2504 22.9127 67.2047 22.9127C68.1589 22.9127 68.9307 22.4999 69.4452 21.9076C69.9358 21.3662 70.217 20.5435 70.217 19.2812V12.042H73.2293V25.1772H70.8332V22.6016H70.4982C69.8042 24.4832 68.1021 25.5123 66.1966 25.5123C64.7338 25.5153 63.5731 25.0247 62.7744 24.226Z" fill="black"/>
<path d="M96.0029 16.9118V25.18H92.9637V17.2977C92.9637 16.3973 92.7842 15.6764 92.3444 15.1589C91.9077 14.6174 91.2885 14.3093 90.412 14.3093C89.5116 14.3093 88.7368 14.6713 88.1714 15.3653C87.7347 15.9067 87.5283 16.6546 87.5283 17.6327V25.18H84.516V17.2977C84.516 16.3973 84.3365 15.6764 83.8967 15.1589C83.46 14.6174 82.8408 14.3093 81.9643 14.3093C81.0639 14.3093 80.2891 14.6713 79.7237 15.3653C79.287 15.9067 79.0806 16.6546 79.0806 17.6327V25.18H76.0682V12.0418H78.4644V14.6174H78.7994C79.3139 12.9422 80.6541 11.7068 82.8677 11.7068C84.8241 11.7068 86.3975 12.7358 87.0138 14.5396C87.6569 12.9183 89.3052 11.7068 91.2885 11.7068C92.7573 11.7068 93.9149 12.1974 94.7136 12.9961C95.641 13.9234 96.0029 15.2875 96.0029 16.9118ZM86.8313 15.1589C86.8313 15.1589 86.8313 15.1589 86.8313 15.1319V15.1589Z" fill="black"/>
<path d="M118.642 16.9118V25.18H115.603V17.2977C115.603 16.3973 115.423 15.6764 114.983 15.1589C114.547 14.6174 113.927 14.3093 113.051 14.3093C112.15 14.3093 111.376 14.6713 110.81 15.3653C110.374 15.9067 110.167 16.6546 110.167 17.6327V25.18H107.155V17.2977C107.155 16.3973 106.975 15.6764 106.536 15.1589C106.099 14.6174 105.48 14.3093 104.603 14.3093C103.703 14.3093 102.928 14.6713 102.363 15.3653C101.926 15.9067 101.719 16.6546 101.719 17.6327V25.18H98.7072V12.0418H101.103V14.6174H101.438C101.953 12.9422 103.293 11.7068 105.507 11.7068C107.463 11.7068 109.036 12.7358 109.653 14.5396C110.296 12.9183 111.944 11.7068 113.927 11.7068C115.396 11.7068 116.554 12.1974 117.353 12.9961C118.28 13.9234 118.642 15.2875 118.642 16.9118ZM109.473 15.1589C109.473 15.1589 109.473 15.1589 109.473 15.1319V15.1589Z" fill="black"/>
<path d="M121.217 7.94678C121.217 6.81304 122.016 6.04126 123.123 6.04126C124.23 6.04126 125.004 6.81304 125.004 7.94678C125.004 9.02967 124.233 9.80145 123.123 9.80145C122.013 9.80145 121.217 9.02967 121.217 7.94678ZM121.603 12.042H124.642V25.1772H121.603V12.042Z" fill="black"/>
<path d="M138.164 12.9961C139.091 13.9234 139.453 15.2875 139.453 16.9118V25.18H136.414V17.2977C136.414 16.3973 136.234 15.6764 135.794 15.1589C135.358 14.6174 134.688 14.3093 133.733 14.3093C132.779 14.3093 132.007 14.7221 131.493 15.3144C131.002 15.8559 130.721 16.6785 130.721 17.9409V25.18H127.709V12.0418H130.105V14.6174H130.44C131.134 12.7358 132.836 11.7068 134.742 11.7068C136.207 11.7068 137.365 12.1974 138.164 12.9961Z" fill="black"/>
<path d="M155.316 13.0738H152.277C153.306 13.9233 153.875 15.084 153.875 16.4211C153.875 17.9916 153.178 19.254 151.658 20.0527C150.653 20.5672 149.367 20.8005 147.82 20.9022C146.842 20.98 146.067 21.004 145.579 21.1087C144.936 21.2373 144.625 21.4706 144.625 21.8565C144.625 22.0629 144.727 22.2693 144.909 22.3979C145.167 22.5774 145.502 22.5774 145.965 22.5774H150.551C152.02 22.5774 152.92 22.7838 153.746 23.3761C154.44 23.8907 154.981 24.818 154.981 26.1073C154.981 28.9162 152.792 31.1298 147.82 31.1298C145.295 31.1298 143.518 30.5375 142.462 29.6102C141.586 28.8384 141.251 28.0397 141.251 27.0855C141.251 26.1581 141.921 25.1799 143.312 24.9466C142.127 24.456 141.613 23.6843 141.613 22.7061C141.613 20.5164 144.987 20.2591 144.987 20.2591V19.9241C142.591 19.4604 141.741 17.7852 141.741 16.3434C141.741 13.7169 144.138 11.6798 147.793 11.6798C149.235 11.6798 150.473 11.9879 151.425 12.5054C151.604 12.0926 151.915 11.5003 152.507 11.0127C153.743 9.98364 155.316 10.1631 155.316 10.1631V13.0738ZM143.931 25.0753C143.88 25.177 143.829 25.3834 143.829 25.7453C143.829 27.3667 144.912 28.3987 148.104 28.3987C150.707 28.3987 152.071 27.6269 152.071 26.4154C152.071 25.6436 151.607 25.18 150.345 25.18H145.579C144.73 25.18 144.293 25.1291 143.931 25.0753ZM150.886 16.472C150.886 15.1827 149.651 14.1806 147.796 14.1806C145.968 14.1806 144.706 15.1857 144.706 16.472C144.706 17.7344 145.968 18.7395 147.796 18.7395C149.6 18.7395 150.886 17.7344 150.886 16.472Z" fill="black"/>
<path d="M159.824 14.8507C160.518 12.6371 162.529 11.7098 164.282 11.7098C167.991 11.7098 170.154 14.8268 170.154 18.6139C170.154 22.3741 167.991 25.4911 164.282 25.4911C161.706 25.4911 160.109 23.8698 159.516 22.5296H159.208V25.183H156.788V6.14575H159.827V14.8507H159.824ZM163.429 22.8348C165.697 22.8348 167.112 20.9801 167.112 18.6109C167.112 16.1909 165.694 14.3601 163.429 14.3601C161.111 14.3601 159.72 16.1879 159.72 18.6109C159.72 20.9801 161.111 22.8348 163.429 22.8348Z" fill="black"/>
<path d="M172.212 7.94678C172.212 6.81304 173.011 6.04126 174.117 6.04126C175.224 6.04126 175.999 6.81304 175.999 7.94678C175.999 9.02967 175.227 9.80145 174.117 9.80145C173.008 9.80145 172.212 9.02967 172.212 7.94678ZM172.598 12.042H175.637V25.1772H172.598V12.042Z" fill="black"/>
<path d="M185.811 14.7223C185.811 14.7223 185.476 14.6714 185.141 14.6714C184.085 14.6714 183.208 14.9556 182.616 15.5479C182.024 16.1402 181.739 17.0406 181.739 18.3299V25.1802H178.7V12.042H181.509V14.6445H181.844C182.179 12.4308 183.364 11.8894 185.168 11.8894C185.452 11.8894 185.811 11.9163 185.811 11.9163V14.7223Z" fill="black"/>
<path d="M197.04 14.8507V6.14575H200.08V25.18H197.66V22.5266H197.352C196.759 23.8668 195.162 25.4881 192.586 25.4881C188.877 25.4881 186.714 22.3711 186.714 18.6109C186.714 14.8238 188.877 11.7068 192.586 11.7068C194.336 11.7068 196.346 12.6341 197.04 14.8507ZM193.436 22.8348C195.754 22.8348 197.145 20.9801 197.145 18.6109C197.145 16.1909 195.754 14.3601 193.436 14.3601C191.168 14.3601 189.753 16.1879 189.753 18.6109C189.75 20.9801 191.168 22.8348 193.436 22.8348Z" fill="black"/>
</g>
<defs>
<clipPath id="clip0_72_23416">
<rect width="200.828" height="32" fill="white"/>
</clipPath>
</defs>
</svg>
