<svg width="74" height="57" viewBox="0 0 74 57" fill="none" xmlns="http://www.w3.org/2000/svg">
<path d="M73.5527 5.9178L72.7349 4.74787L57.5428 14.3402C55.9015 13.8233 52.5904 13.0396 49.251 13.7609C46.2523 14.4083 44.0431 16.1518 42.4812 19.0994C41.6521 20.6725 41.0841 22.4558 40.431 24.5174C40.13 25.4659 39.8176 26.4484 39.4598 27.4763C39.2213 28.1521 38.9828 28.8053 38.7386 29.447C26.2555 26.9993 19.6391 16.8106 21.0021 2.00478L21.1895 0L19.2358 0.482737C19.0825 0.522492 15.4477 1.44254 11.4779 4.50366C4.17997 10.1375 0 18.5826 0 27.6694C0 34.4221 2.31716 40.6352 6.19045 45.5818L6.15069 45.6102C6.41194 45.9453 6.70158 46.2633 6.99123 46.5644C12.3355 52.8059 20.2581 56.77 29.0951 56.77C36.6599 56.77 43.4922 54.1235 48.3309 49.3131C52.2497 45.4228 55.1461 40.3115 56.9408 34.1267C58.3776 29.1915 59.1443 23.4327 59.2352 17.0151L73.5527 5.9178ZM9.04146 44.5482C6.97419 42.0948 5.34423 39.2551 4.2822 36.1542C8.95627 39.6867 15.3966 41.6858 22.473 41.6858C22.8308 41.6858 23.1886 41.6802 23.5464 41.6688C27.272 41.5609 30.7024 40.9135 33.4398 39.8685C30.3389 44.2358 26.7666 46.7574 22.5696 47.6036C14.8628 49.1654 10.7225 46.252 9.04146 44.5482ZM13.2271 6.78105C15.0218 5.39531 16.7483 4.50366 17.9977 3.96981C17.674 11.6084 19.4289 18.1964 23.1148 23.1374C26.4315 27.5785 31.2078 30.617 37.0007 32.0084C31.1567 33.4282 23.8417 32.0936 17.9012 28.4248C12.0515 24.8127 8.26908 19.4742 7.16161 13.3179C8.76886 10.8588 10.8077 8.64953 13.2271 6.78105ZM5.1341 17.0151C6.96851 22.6205 10.8588 27.4422 16.3905 30.8612C21.2122 33.8428 26.8915 35.4216 32.1733 35.4216C33.4795 35.4216 34.7574 35.3251 35.9955 35.1263C33.9055 37.1651 28.9588 38.6474 23.4669 38.8008C14.9252 39.0507 7.33199 36.1713 3.1009 31.111C2.95324 29.9809 2.86805 28.8337 2.86805 27.6637C2.86805 23.9324 3.65748 20.3261 5.1341 17.0151ZM46.3148 47.2799C42.0155 51.5507 35.9046 53.902 29.0951 53.902C24.6596 53.902 20.4796 52.7888 16.8108 50.8408C17.3389 50.8806 17.8728 50.909 18.418 50.909C19.9344 50.909 21.5132 50.75 23.1318 50.4206C31.452 48.7395 37.4948 41.754 42.1575 28.4304C42.5324 27.3627 42.8504 26.3575 43.1571 25.392C43.7704 23.4611 44.3043 21.7914 45.0142 20.4454C46.1671 18.2645 47.7005 17.0321 49.8473 16.5664C52.3519 16.0269 54.936 16.5721 56.3672 16.9867C56.282 23.143 55.5493 28.6462 54.1863 33.3316C52.5336 39.045 49.8871 43.7361 46.3148 47.2799Z" fill="white"/>
</svg>
